<svg width="88" height="88" viewBox="0 0 88 88" fill="none" xmlns="http://www.w3.org/2000/svg">
<path fill-rule="evenodd" clip-rule="evenodd" d="M38.1143 28.7251L38.2019 28.8656L38.1231 29.011C36.6223 31.78 35.772 34.9533 35.772 38.3253C35.772 48.8478 44.0757 57.4242 54.4878 57.8734L54.734 57.8825L54.8988 57.8877L65.4625 77.7917L60.0738 80.902L47.9088 61.4701L47.1094 83.9975H40.8884L39.9916 58.9454L26.6939 80.1929L21.3051 77.0826L33.0536 54.9386L10.9123 66.6926L7.80191 61.3039L26.9073 49.3438L4 48.5277V42.3066L28.6668 41.424L7.09541 27.921L10.2058 22.5323L32.0035 34.1004L20.0751 11.6214L25.4638 8.51104L38.1143 28.7251Z" fill="#3BA500"/>
<path fill-rule="evenodd" clip-rule="evenodd" d="M79.4838 62.531L76.3734 67.9197L57.334 57.8136L58.1917 57.6887C61.1859 57.2525 63.9594 56.1415 66.3531 54.5103L66.5065 54.406L79.4838 62.531Z" fill="#3BA500"/>
<path d="M83.9975 42.3066V48.5277L71.7859 48.9606L72.0608 48.5106C73.2282 46.5991 74.0757 44.4725 74.5318 42.2032L74.5793 41.9669L83.9975 42.3066Z" fill="#3BA500"/>
<path d="M63.1674 28.3619L81.4241 22.247L67.0001 35.0007L68.8599 45.8872L60.3617 38.8334L48.255 41.3894L56.5287 32.1946L54.6689 21.3081L63.1674 28.3619Z" fill="#3BA500"/>
<path fill-rule="evenodd" clip-rule="evenodd" d="M47.691 20.3069L47.5142 20.3843C44.857 21.5459 42.5077 23.2793 40.6219 25.431L40.0963 26.0305L40.8884 4H47.1094L47.691 20.3069ZM46.8989 20.3521C46.8509 20.3747 46.8033 20.3978 46.7555 20.4207C46.8145 20.3923 46.8736 20.3641 46.9329 20.3363L46.8989 20.3521Z" fill="#3BA500"/>
</svg>
