<svg width="456" height="88" viewBox="0 0 456 88" fill="none" xmlns="http://www.w3.org/2000/svg">
<path fill-rule="evenodd" clip-rule="evenodd" d="M38.1143 28.7251L38.2019 28.8656L38.1231 29.011C36.6223 31.78 35.772 34.9533 35.772 38.3253C35.772 48.8478 44.0757 57.4242 54.4878 57.8734L54.734 57.8825L54.8988 57.8877L65.4625 77.7917L60.0738 80.902L47.9088 61.4701L47.1094 83.9975H40.8884L39.9916 58.9454L26.6939 80.1929L21.3051 77.0826L33.0536 54.9386L10.9123 66.6926L7.80191 61.3039L26.9073 49.3438L4 48.5277V42.3066L28.6668 41.424L7.09541 27.921L10.2058 22.5323L32.0035 34.1004L20.0751 11.6214L25.4638 8.51104L38.1143 28.7251Z" fill="white"/>
<path fill-rule="evenodd" clip-rule="evenodd" d="M79.4838 62.531L76.3734 67.9197L57.334 57.8136L58.1917 57.6887C61.1859 57.2525 63.9594 56.1415 66.3531 54.5103L66.5065 54.406L79.4838 62.531Z" fill="white"/>
<path d="M83.9975 42.3066V48.5277L71.7859 48.9606L72.0608 48.5106C73.2282 46.5991 74.0757 44.4725 74.5318 42.2032L74.5793 41.9669L83.9975 42.3066Z" fill="white"/>
<path d="M63.1674 28.3619L81.4241 22.247L67.0001 35.0007L68.8599 45.8872L60.3617 38.8334L48.255 41.3894L56.5287 32.1946L54.6689 21.3081L63.1674 28.3619Z" fill="white"/>
<path fill-rule="evenodd" clip-rule="evenodd" d="M47.691 20.3069L47.5142 20.3843C44.857 21.5459 42.5077 23.2793 40.6219 25.431L40.0963 26.0305L40.8884 4H47.1094L47.691 20.3069ZM46.8989 20.3521C46.8509 20.3747 46.8033 20.3978 46.7555 20.4207C46.8145 20.3923 46.8736 20.3641 46.9329 20.3363L46.8989 20.3521Z" fill="white"/>
<path d="M101.775 43.2569C101.775 39.504 102.466 36.1707 103.849 33.2573C105.281 30.3438 107.256 28.0722 109.774 26.4427C112.342 24.8131 115.256 23.9983 118.515 23.9983C121.428 23.9983 123.971 24.7143 126.144 26.1464C128.317 27.5784 130.021 29.5537 131.255 32.0721C131.453 32.7141 131.724 32.9857 132.07 32.8869C132.317 32.8375 132.44 32.6894 132.44 32.4425C132.44 32.2449 132.391 32.0227 132.292 31.7758C132.193 31.4795 132.119 31.282 132.07 31.1832C131.823 30.5413 131.65 29.924 131.551 29.3315C131.453 28.7389 131.403 27.9982 131.403 27.1093V24.5909H138.514V59.1083C138.514 65.0834 136.86 69.6018 133.551 72.6634C130.292 75.7744 125.897 77.3299 120.367 77.3299C115.033 77.3299 110.885 76.1448 107.922 73.7745C104.96 71.4536 103.305 68.4907 102.96 64.8859H110.071C110.367 66.8611 111.231 68.4907 112.663 69.7746C114.095 71.0585 116.638 71.7005 120.292 71.7005C123.897 71.7005 126.638 70.6388 128.514 68.5154C130.44 66.392 131.403 63.2563 131.403 59.1083C131.403 57.5775 131.625 56.2689 132.07 55.1825C132.317 54.5405 132.44 54.1702 132.44 54.0714C132.44 53.8245 132.317 53.6764 132.07 53.627H131.922C131.625 53.627 131.403 53.8492 131.255 54.2936C130.021 56.9108 128.317 58.9354 126.144 60.3675C123.971 61.7996 121.428 62.5156 118.515 62.5156C115.256 62.5156 112.342 61.7008 109.774 60.0712C107.256 58.4416 105.281 56.1701 103.849 53.2566C102.466 50.3431 101.775 47.0099 101.775 43.2569ZM120.144 55.9973C123.453 55.9973 126.144 54.7874 128.218 52.3678C130.342 49.9481 131.403 46.9111 131.403 43.2569C131.403 39.6027 130.342 36.5658 128.218 34.1461C126.144 31.7264 123.453 30.5166 120.144 30.5166C116.589 30.5166 113.824 31.7018 111.848 34.072C109.873 36.4423 108.885 39.504 108.885 43.2569C108.885 47.0099 109.873 50.0715 111.848 52.4418C113.824 54.8121 116.589 55.9973 120.144 55.9973Z" fill="white"/>
<path d="M145.031 51.9233C145.031 44.6643 149.574 40.7138 158.66 40.0719L162.957 39.8496C166.216 39.7509 168.586 39.504 170.068 39.1089C171.598 38.7139 172.339 37.825 172.29 36.4423C172.191 32.2943 168.981 30.2203 162.66 30.2203C159.5 30.2203 157.204 30.7635 155.772 31.8499C154.34 32.8869 153.475 34.4177 153.179 36.4423H146.216C146.858 32.2449 148.661 29.1339 151.624 27.1093C154.587 25.0353 158.364 23.9983 162.957 23.9983C167.944 23.9983 171.919 25.2328 174.882 27.7019C177.894 30.1216 179.401 34.5165 179.401 40.8866V62.5156H172.29V58.8861C172.29 57.5034 172.561 56.022 173.104 54.4418C173.154 54.2936 173.203 54.0961 173.253 53.8492C173.302 53.6023 173.302 53.4048 173.253 53.2566C173.253 53.1085 173.179 53.0097 173.03 52.9603L172.808 52.8863C172.561 52.8863 172.388 53.0097 172.29 53.2566C172.24 53.5035 172.191 53.6517 172.142 53.701C171.055 56.5652 169.277 58.8614 166.808 60.5897C164.339 62.2687 161.426 63.1082 158.068 63.1082C155.698 63.1082 153.5 62.639 151.475 61.7008C149.5 60.7132 147.92 59.3799 146.735 57.7009C145.599 55.9726 145.031 54.0467 145.031 51.9233ZM172.29 42.0718C171.45 43.1088 170.265 43.8248 168.734 44.2199C167.253 44.6149 165.031 45.01 162.068 45.405C161.525 45.4544 160.537 45.5779 159.105 45.7754C156.735 46.121 154.982 46.763 153.846 47.7012C152.71 48.5901 152.142 49.874 152.142 51.553C152.142 53.0344 152.685 54.2689 153.772 55.2566C154.907 56.2442 156.562 56.738 158.735 56.738C161.055 56.738 163.228 56.2442 165.253 55.2566C167.327 54.2196 169.006 52.6147 170.29 50.4419C171.623 48.2197 172.29 45.4297 172.29 42.0718Z" fill="white"/>
<path d="M228.136 23.9983C232.037 23.9983 235.148 25.2081 237.469 27.6278C239.839 29.9981 241.024 33.9239 241.024 39.4052V62.5156H233.913V38.5163C233.913 32.9857 231.42 30.2203 226.432 30.2203C225 30.2203 223.617 30.6647 222.284 31.5536C221 32.3931 219.938 33.6276 219.099 35.2572C218.309 36.8868 217.914 38.8126 217.914 41.0348V62.5156H210.803V39.4052C210.803 36.393 210.26 34.1214 209.173 32.5906C208.087 31.0104 206.359 30.2203 203.988 30.2203C202.457 30.2203 200.976 30.7388 199.544 31.7758C198.112 32.8128 196.951 34.2943 196.063 36.2201C195.223 38.0966 194.803 40.2447 194.803 42.6644V62.5156H187.693V24.5909H194.803V27.1093C194.803 28.5907 194.532 30.1956 193.989 31.924C193.989 32.0227 193.939 32.1956 193.84 32.4425C193.791 32.64 193.791 32.8128 193.84 32.961C193.89 33.0597 193.989 33.1338 194.137 33.1832H194.359C194.606 33.1832 194.803 32.9857 194.952 32.5906C195.89 29.9734 197.371 27.8994 199.396 26.3686C201.47 24.7884 203.791 23.9983 206.359 23.9983C208.729 23.9983 210.803 24.7637 212.581 26.2945C214.358 27.7759 215.519 29.7018 216.062 32.0721C216.161 32.4672 216.408 32.6647 216.803 32.6647C217.198 32.6647 217.469 32.4672 217.618 32.0721C218.605 29.5043 220.012 27.529 221.84 26.1464C223.716 24.7143 225.815 23.9983 228.136 23.9983Z" fill="white"/>
<path d="M282.507 43.0347C282.507 43.9236 282.433 44.7878 282.284 45.6272H253.989C254.236 48.7876 255.396 51.4048 257.47 53.4788C259.544 55.5528 262.236 56.5898 265.544 56.5898C268.013 56.5898 269.939 56.022 271.322 54.8862C272.754 53.701 273.816 51.9727 274.507 49.7012H281.84C281.001 53.5529 279.173 56.7627 276.359 59.3305C273.593 61.8489 269.939 63.1082 265.396 63.1082C261.544 63.1082 258.211 62.244 255.396 60.5156C252.631 58.7873 250.532 56.4417 249.1 53.4788C247.668 50.516 246.952 47.2074 246.952 43.5532C246.952 39.8003 247.718 36.4423 249.248 33.4795C250.779 30.5166 252.927 28.1957 255.693 26.5167C258.507 24.8378 261.692 23.9983 265.248 23.9983C268.211 23.9983 271.001 24.6896 273.618 26.0723C276.285 27.4056 278.433 29.5043 280.062 32.3684C281.692 35.2325 282.507 38.7879 282.507 43.0347ZM275.396 39.7015C275.149 36.8374 274.161 34.5412 272.433 32.8128C270.705 31.0845 268.433 30.2203 265.618 30.2203C262.31 30.2203 259.742 31.0845 257.915 32.8128C256.137 34.5412 254.952 36.8374 254.359 39.7015H275.396Z" fill="white"/>
<path d="M295.048 33.4054C295.295 33.4054 295.518 33.1832 295.715 32.7388C296.604 30.5166 297.518 28.813 298.456 27.6278C299.394 26.3933 300.727 25.4797 302.456 24.8872C304.233 24.2946 306.678 23.9983 309.789 23.9983V31.2573C309.196 31.2079 308.381 31.1832 307.344 31.1832C302.949 31.1832 299.888 32.2203 298.159 34.2943C296.431 36.3189 295.567 39.6768 295.567 44.368V62.5156H288.456V24.5909H295.567V27.1093C295.567 28.5907 295.295 30.245 294.752 32.0721C294.653 32.4672 294.604 32.7388 294.604 32.8869C294.604 33.1832 294.728 33.356 294.974 33.4054H295.048Z" fill="white"/>
<path d="M311.548 51.9233C311.548 44.6643 316.091 40.7138 325.177 40.0719L329.473 39.8496C332.732 39.7509 335.103 39.504 336.584 39.1089C338.115 38.7139 338.856 37.825 338.806 36.4423C338.708 32.2943 335.498 30.2203 329.177 30.2203C326.017 30.2203 323.72 30.7635 322.288 31.8499C320.856 32.8869 319.992 34.4177 319.696 36.4423H312.733C313.375 32.2449 315.177 29.1339 318.14 27.1093C321.103 25.0353 324.881 23.9983 329.473 23.9983C334.461 23.9983 338.436 25.2328 341.399 27.7019C344.411 30.1216 345.917 34.5165 345.917 40.8866V62.5156H338.806V58.8861C338.806 57.5034 339.078 56.022 339.621 54.4418C339.671 54.2936 339.72 54.0961 339.769 53.8492C339.819 53.6023 339.819 53.4048 339.769 53.2566C339.769 53.1085 339.695 53.0097 339.547 52.9603L339.325 52.8863C339.078 52.8863 338.905 53.0097 338.806 53.2566C338.757 53.5035 338.708 53.6517 338.658 53.701C337.572 56.5652 335.794 58.8614 333.325 60.5897C330.856 62.2687 327.943 63.1082 324.585 63.1082C322.214 63.1082 320.017 62.639 317.992 61.7008C316.017 60.7132 314.437 59.3799 313.252 57.7009C312.116 55.9726 311.548 54.0467 311.548 51.9233ZM338.806 42.0718C337.967 43.1088 336.782 43.8248 335.251 44.2199C333.769 44.6149 331.547 45.01 328.584 45.405C328.041 45.4544 327.054 45.5779 325.622 45.7754C323.251 46.121 321.498 46.763 320.362 47.7012C319.227 48.5901 318.659 49.874 318.659 51.553C318.659 53.0344 319.202 54.2689 320.288 55.2566C321.424 56.2442 323.078 56.738 325.251 56.738C327.572 56.738 329.745 56.2442 331.77 55.2566C333.844 54.2196 335.523 52.6147 336.806 50.4419C338.14 48.2197 338.806 45.4297 338.806 42.0718Z" fill="white"/>
<path d="M394.652 23.9983C398.553 23.9983 401.664 25.2081 403.985 27.6278C406.356 29.9981 407.541 33.9239 407.541 39.4052V62.5156H400.43V38.5163C400.43 32.9857 397.936 30.2203 392.949 30.2203C391.517 30.2203 390.134 30.6647 388.801 31.5536C387.517 32.3931 386.455 33.6276 385.616 35.2572C384.826 36.8868 384.43 38.8126 384.43 41.0348V62.5156H377.32V39.4052C377.32 36.393 376.776 34.1214 375.69 32.5906C374.604 31.0104 372.875 30.2203 370.505 30.2203C368.974 30.2203 367.493 30.7388 366.061 31.7758C364.629 32.8128 363.468 34.2943 362.579 36.2201C361.74 38.0966 361.32 40.2447 361.32 42.6644V62.5156H354.209V24.5909H361.32V27.1093C361.32 28.5907 361.049 30.1956 360.505 31.924C360.505 32.0227 360.456 32.1956 360.357 32.4425C360.308 32.64 360.308 32.8128 360.357 32.961C360.407 33.0597 360.505 33.1338 360.653 33.1832H360.876C361.123 33.1832 361.32 32.9857 361.468 32.5906C362.406 29.9734 363.888 27.8994 365.913 26.3686C367.987 24.7884 370.307 23.9983 372.875 23.9983C375.246 23.9983 377.32 24.7637 379.097 26.2945C380.875 27.7759 382.035 29.7018 382.579 32.0721C382.677 32.4672 382.924 32.6647 383.319 32.6647C383.714 32.6647 383.986 32.4672 384.134 32.0721C385.122 29.5043 386.529 27.529 388.356 26.1464C390.233 24.7143 392.331 23.9983 394.652 23.9983Z" fill="white"/>
<path d="M422.371 27.5537C422.371 28.7883 422.124 30.1462 421.631 31.6277C421.581 31.7264 421.507 31.924 421.408 32.2203C421.31 32.4672 421.26 32.6894 421.26 32.8869C421.31 33.035 421.433 33.1338 421.631 33.1832L421.853 33.2573C422.1 33.2573 422.322 32.9857 422.52 32.4425C423.705 29.8746 425.384 27.8253 427.556 26.2945C429.779 24.7637 432.346 23.9983 435.26 23.9983C438.47 23.9983 441.334 24.8378 443.852 26.5167C446.42 28.1957 448.42 30.5413 449.852 33.5535C451.284 36.5164 452 39.8496 452 43.5532C452 47.2568 451.284 50.6147 449.852 53.627C448.42 56.5898 446.42 58.9108 443.852 60.5897C441.334 62.2687 438.47 63.1082 435.26 63.1082C432.396 63.1082 429.853 62.3427 427.63 60.8119C425.408 59.2317 423.705 57.133 422.52 54.5158C422.322 53.9726 422.075 53.7504 421.779 53.8492C421.483 53.8986 421.334 54.0714 421.334 54.3677C421.334 54.6146 421.433 54.9356 421.631 55.3306C422.124 56.8614 422.371 58.1947 422.371 59.3305V76.7374H415.261V24.5909H422.371V27.5537ZM433.778 56.5898C437.334 56.5898 440.075 55.3553 442 52.8863C443.926 50.3678 444.889 47.2568 444.889 43.5532C444.889 39.8496 443.926 36.7633 442 34.2943C440.075 31.7758 437.334 30.5166 433.778 30.5166C431.606 30.5166 429.63 31.1092 427.853 32.2943C426.124 33.4795 424.766 35.0844 423.779 37.109C422.841 39.0842 422.371 41.2323 422.371 43.5532C422.371 45.8741 422.841 48.0469 423.779 50.0715C424.766 52.0468 426.124 53.627 427.853 54.8121C429.63 55.9973 431.606 56.5898 433.778 56.5898Z" fill="white"/>
</svg>
