<svg width="896" height="160" viewBox="0 0 896 160" fill="none" xmlns="http://www.w3.org/2000/svg">
<path fill-rule="evenodd" clip-rule="evenodd" d="M68.4043 49.7314L68.2461 50.0215C65.2447 55.5595 63.544 61.9065 63.5439 68.6504C63.5441 89.6954 80.1515 106.849 100.976 107.747L101.468 107.765L101.798 107.775L122.925 147.583L112.147 153.804L87.8174 114.94L86.2188 159.995H73.7764L71.9834 109.891L45.3877 152.386L34.6104 146.165L58.1074 101.877L13.8242 125.385L7.60352 114.607L45.8145 90.6875L0 89.0557V76.6133L49.334 74.8477L6.19043 47.8418L12.4111 37.0645L56.0068 60.2012L32.1504 15.2432L42.9277 9.02246L68.4043 49.7314ZM57.375 61.5703V61.5684L12.6299 37.8223L57.375 61.5703Z" fill="black"/>
<path fill-rule="evenodd" clip-rule="evenodd" d="M229.029 39.9971C234.856 39.9971 239.943 41.4289 244.288 44.293C248.634 47.1571 252.041 51.1077 254.51 56.1445C254.905 57.4283 255.448 57.9709 256.14 57.7734C256.633 57.6746 256.88 57.3785 256.88 56.8848C256.88 56.4898 256.781 56.0455 256.584 55.5518C256.386 54.9592 256.238 54.5637 256.14 54.3662C255.646 53.0824 255.3 51.8481 255.103 50.6631C254.905 49.478 254.807 47.9964 254.807 46.2188V41.1816H269.028V110.217C269.028 122.167 265.72 131.204 259.103 137.327C252.584 143.549 243.794 146.66 232.732 146.66C222.066 146.66 213.77 144.289 207.845 139.549C201.919 134.907 198.61 128.981 197.919 121.771H212.141C212.733 125.722 214.462 128.981 217.326 131.549C220.19 134.117 225.277 135.401 232.585 135.401C239.794 135.401 245.275 133.278 249.028 129.031C252.88 124.785 254.807 118.513 254.807 110.217C254.807 107.155 255.251 104.538 256.14 102.365C256.633 101.081 256.88 100.34 256.88 100.143C256.88 99.649 256.633 99.3527 256.14 99.2539H255.843C255.25 99.2541 254.806 99.6984 254.51 100.587C252.041 105.821 248.634 109.871 244.288 112.735C239.943 115.599 234.856 117.031 229.029 117.031C222.511 117.031 216.683 115.402 211.548 112.143C206.511 108.884 202.561 104.34 199.697 98.5137C196.932 92.6867 195.549 86.0196 195.549 78.5137C195.549 71.0078 196.932 64.3416 199.697 58.5146C202.561 52.6879 206.511 48.1449 211.548 44.8857C216.683 41.6266 222.511 39.9971 229.029 39.9971ZM232.288 53.0332C225.177 53.0333 219.647 55.404 215.696 60.1445C211.746 64.885 209.771 71.008 209.771 78.5137C209.771 86.0196 211.746 92.1432 215.696 96.8838C219.647 101.624 225.177 103.994 232.288 103.994C238.905 103.994 244.289 101.575 248.437 96.7354C252.683 91.8961 254.807 85.8219 254.807 78.5137C254.807 71.2054 252.683 65.1313 248.437 60.292C244.289 55.4526 238.905 53.0332 232.288 53.0332Z" fill="black"/>
<path fill-rule="evenodd" clip-rule="evenodd" d="M862.52 39.9971C868.939 39.9971 874.667 41.6753 879.704 45.0332C884.84 48.3911 888.84 53.0829 891.704 59.1074C894.568 65.0331 896 71.6994 896 79.1064C896 86.5135 894.568 93.2295 891.704 99.2539C888.84 105.18 884.84 109.822 879.704 113.18C874.667 116.538 868.939 118.216 862.52 118.216C856.791 118.216 851.705 116.686 847.261 113.624C842.816 110.464 839.409 106.266 837.039 101.031C836.644 99.9452 836.15 99.5009 835.558 99.6982C834.965 99.797 834.669 100.143 834.669 100.735C834.669 101.229 834.866 101.871 835.261 102.661C836.248 105.723 836.742 108.39 836.742 110.661V145.475H822.521V41.1816H836.742V47.1074C836.742 49.5764 836.248 52.2921 835.261 55.2549C835.162 55.4524 835.014 55.8479 834.816 56.4404C834.619 56.9341 834.521 57.3785 834.521 57.7734C834.619 58.0696 834.866 58.2674 835.261 58.3662L835.705 58.5146C836.199 58.5146 836.644 57.9712 837.039 56.8848C839.409 51.7493 842.767 47.6504 847.112 44.5889C851.557 41.5272 856.693 39.9971 862.52 39.9971ZM859.557 53.0332C855.211 53.0332 851.261 54.2186 847.705 56.5889C844.249 58.9591 841.533 62.1687 839.558 66.2178C837.681 70.1683 836.742 74.4646 836.742 79.1064C836.742 83.7483 837.681 88.0943 839.558 92.1436C841.533 96.0937 844.249 99.2538 847.705 101.624C851.261 103.994 855.211 105.18 859.557 105.18C866.668 105.18 872.149 102.711 876.001 97.7725C879.853 92.7356 881.778 86.5135 881.778 79.1064C881.778 71.6995 879.852 65.5269 876.001 60.5889C872.149 55.552 866.668 53.0332 859.557 53.0332Z" fill="black"/>
<path fill-rule="evenodd" clip-rule="evenodd" d="M150.968 117.062L144.747 127.84L106.668 107.627L108.384 107.377C114.372 106.505 119.919 104.283 124.706 101.021L125.013 100.812L150.968 117.062ZM120.256 104.274C119.925 104.438 119.59 104.597 119.254 104.751L119.757 104.517C120.091 104.357 120.423 104.193 120.752 104.024L120.256 104.274ZM121.731 103.507L122.215 103.238C122.273 103.205 122.331 103.171 122.39 103.138C122.171 103.263 121.952 103.386 121.731 103.507Z" fill="black"/>
<path fill-rule="evenodd" clip-rule="evenodd" d="M317.913 39.9971C327.888 39.9971 335.838 42.4655 341.764 47.4033C347.788 52.2427 350.801 61.0331 350.801 73.7734V117.031H336.579V109.772C336.579 107.007 337.123 104.044 338.209 100.884C338.308 100.588 338.406 100.192 338.505 99.6982C338.604 99.2047 338.604 98.8099 338.505 98.5137C338.505 98.2174 338.357 98.0197 338.061 97.9209L337.616 97.7725C337.122 97.7725 336.777 98.0199 336.579 98.5137C336.48 99.0071 336.382 99.3035 336.283 99.4023C334.11 105.131 330.554 109.723 325.616 113.18C320.678 116.537 314.851 118.216 308.136 118.216C303.395 118.216 299 117.278 294.951 115.401C291.001 113.426 287.84 110.759 285.47 107.401C283.198 103.945 282.063 100.093 282.062 95.8467C282.062 81.3287 291.148 73.4275 309.32 72.1436L317.913 71.6992C324.431 71.5017 329.172 71.0079 332.135 70.2178C335.196 69.4277 336.678 67.6501 336.579 64.8848C336.382 56.5887 329.962 52.4404 317.32 52.4404C311 52.4404 306.407 53.5274 303.543 55.7002C300.679 57.7742 298.951 60.8356 298.358 64.8848H284.433C285.717 56.49 289.321 50.268 295.247 46.2188C301.173 42.0707 308.728 39.9971 317.913 39.9971ZM336.579 76.1436C334.9 78.2176 332.529 79.6494 329.468 80.4395C326.505 81.2295 322.061 82.0195 316.136 82.8096C315.049 82.9083 313.074 83.1558 310.21 83.5508C305.469 84.2421 301.963 85.5259 299.691 87.4023C297.42 89.18 296.284 91.7478 296.284 95.1055C296.284 98.0682 297.37 100.538 299.543 102.513C301.814 104.488 305.123 105.476 309.469 105.476C314.111 105.476 318.457 104.488 322.506 102.513C326.654 100.439 330.011 97.2291 332.579 92.8838C335.246 88.4395 336.579 82.8594 336.579 76.1436Z" fill="black"/>
<path fill-rule="evenodd" clip-rule="evenodd" d="M522.495 39.9971C528.421 39.9971 534.001 41.3793 539.235 44.1445C544.568 46.811 548.865 51.0083 552.124 56.7363C555.383 62.4645 557.013 69.5758 557.013 78.0693C557.013 79.8471 556.865 81.5759 556.568 83.2549H499.978C500.471 89.5755 502.792 94.8101 506.94 98.958C511.088 103.106 516.471 105.18 523.088 105.18C528.026 105.18 531.878 104.044 534.644 101.772C537.508 99.4022 539.631 95.9454 541.014 91.4023H555.68C554.001 99.1058 550.346 105.525 544.717 110.661C539.186 115.698 531.878 118.216 522.792 118.216C515.089 118.216 508.422 116.488 502.793 113.031C497.262 109.575 493.064 104.884 490.2 98.958C487.336 93.0323 485.904 86.4149 485.904 79.1064C485.904 71.6005 487.435 64.8847 490.497 58.959C493.559 53.0334 497.854 48.3911 503.385 45.0332C509.014 41.6754 515.384 39.9971 522.495 39.9971ZM523.236 52.4404C516.619 52.4404 511.483 54.1693 507.829 57.626C504.274 61.0826 501.904 65.6753 500.719 71.4033H542.791C542.297 65.6751 540.322 61.0827 536.865 57.626C533.409 54.1693 528.866 52.4404 523.236 52.4404Z" fill="black"/>
<path fill-rule="evenodd" clip-rule="evenodd" d="M650.946 39.9971C660.921 39.9971 668.872 42.4652 674.798 47.4033C680.822 52.2427 683.834 61.0331 683.834 73.7734V117.031H669.612V109.772C669.612 107.007 670.156 104.044 671.242 100.884C671.341 100.588 671.439 100.192 671.538 99.6982C671.637 99.2047 671.637 98.8099 671.538 98.5137C671.538 98.2174 671.39 98.0197 671.094 97.9209L670.649 97.7725C670.156 97.7725 669.81 98.0199 669.612 98.5137C669.514 99.0072 669.415 99.3036 669.316 99.4023C667.144 105.13 663.587 109.723 658.649 113.18C653.711 116.537 647.885 118.216 641.169 118.216C636.428 118.216 632.034 117.278 627.984 115.401C624.034 113.426 620.873 110.759 618.503 107.401C616.232 103.945 615.096 100.093 615.096 95.8467C615.096 81.3286 624.182 73.4275 642.354 72.1436L650.946 71.6992C657.465 71.5017 662.205 71.0078 665.168 70.2178C668.23 69.4277 669.711 67.6501 669.612 64.8848C669.415 56.5887 662.995 52.4404 650.354 52.4404C644.033 52.4405 639.44 53.5275 636.576 55.7002C633.712 57.7742 631.984 60.8357 631.392 64.8848H617.466C618.75 56.4901 622.355 50.268 628.28 46.2188C634.206 42.0707 641.761 39.9971 650.946 39.9971ZM669.612 76.1436C667.933 78.2174 665.563 79.6493 662.502 80.4395C659.539 81.2295 655.095 82.0195 649.169 82.8096C648.083 82.9083 646.107 83.1558 643.243 83.5508C638.503 84.2421 634.996 85.5259 632.725 87.4023C630.453 89.18 629.317 91.7478 629.317 95.1055C629.317 98.0681 630.404 100.538 632.576 102.513C634.848 104.488 638.157 105.476 642.502 105.476C647.144 105.476 651.49 104.488 655.539 102.513C659.687 100.439 663.045 97.2291 665.612 92.8838C668.279 88.4395 669.612 82.8594 669.612 76.1436Z" fill="black"/>
<path d="M448.271 39.9971C456.074 39.9971 462.296 42.4166 466.938 47.2559C471.678 51.9965 474.048 59.8481 474.048 70.8105V117.031H459.826V69.0322C459.826 57.9713 454.839 52.4406 444.864 52.4404C442 52.4404 439.234 53.3297 436.567 55.1074C434 56.7864 431.876 59.2557 430.197 62.5146C428.617 65.7737 427.827 69.6253 427.827 74.0693V117.031H413.605V70.8105C413.605 64.7863 412.519 60.2433 410.347 57.1816C408.174 54.0213 404.717 52.4405 399.977 52.4404C396.915 52.4404 393.952 53.4778 391.088 55.5518C388.224 57.6258 385.903 60.5887 384.125 64.4404C382.446 68.1934 381.606 72.4898 381.606 77.3291V117.031H367.385V41.1816H381.606V46.2188C381.606 49.1815 381.063 52.3911 379.977 55.8477C379.977 56.0452 379.878 56.391 379.681 56.8848C379.582 57.2798 379.582 57.6256 379.681 57.9219C379.779 58.1194 379.977 58.2674 380.273 58.3662H380.718C381.212 58.3662 381.607 57.9716 381.903 57.1816C383.78 51.9474 386.742 47.7989 390.791 44.7373C394.939 41.5769 399.581 39.9971 404.717 39.9971C409.457 39.9971 413.606 41.5272 417.161 44.5889C420.717 47.5517 423.038 51.4039 424.124 56.1445C424.322 56.9344 424.815 57.3291 425.605 57.3291C426.395 57.329 426.938 56.9343 427.234 56.1445C429.21 51.009 432.025 47.0583 435.679 44.293C439.432 41.4289 443.63 39.9971 448.271 39.9971Z" fill="black"/>
<path d="M611.577 54.5146C610.392 54.4159 608.762 54.3662 606.688 54.3662C597.899 54.3662 591.775 56.4409 588.318 60.5889C584.862 64.6382 583.134 71.3542 583.134 80.7363V117.031H568.912V41.1816H583.134V46.2188C583.134 49.1816 582.59 52.4904 581.504 56.1445C581.307 56.9341 581.208 57.4771 581.208 57.7734C581.208 58.3659 581.455 58.7117 581.948 58.8105H582.097C582.59 58.8105 583.035 58.3663 583.43 57.4775C585.207 53.0334 587.035 49.6261 588.911 47.2559C590.788 44.7868 593.454 42.9596 596.911 41.7744C600.467 40.5893 605.355 39.9971 611.577 39.9971V54.5146Z" fill="black"/>
<path d="M781.305 39.9971C789.107 39.9971 795.329 42.4165 799.971 47.2559C804.711 51.9965 807.081 59.8481 807.081 70.8105V117.031H792.859V69.0322C792.859 57.9713 787.872 52.4405 777.897 52.4404C775.033 52.4404 772.268 53.3298 769.602 55.1074C767.034 56.7864 764.91 59.2555 763.231 62.5146C761.651 65.7737 760.86 69.6252 760.86 74.0693V117.031H746.639V70.8105C746.639 64.7863 745.553 60.2433 743.38 57.1816C741.207 54.0212 737.75 52.4404 733.01 52.4404C729.948 52.4404 726.985 53.4778 724.121 55.5518C721.257 57.6258 718.936 60.5887 717.158 64.4404C715.479 68.1933 714.64 72.4898 714.64 77.3291V117.031H700.418V41.1816H714.64V46.2188C714.64 49.1815 714.097 52.3912 713.011 55.8477C713.011 56.0452 712.911 56.391 712.714 56.8848C712.615 57.2798 712.615 57.6256 712.714 57.9219C712.813 58.1194 713.01 58.2674 713.307 58.3662H713.751C714.245 58.3662 714.64 57.9716 714.937 57.1816C716.813 51.9472 719.776 47.7989 723.825 44.7373C727.973 41.5771 732.615 39.9971 737.75 39.9971C742.491 39.9971 746.639 41.5273 750.194 44.5889C753.75 47.5517 756.071 51.4039 757.157 56.1445C757.355 56.9344 757.849 57.3291 758.639 57.3291C759.429 57.3291 759.972 56.9345 760.269 56.1445C762.244 51.0091 765.058 47.0583 768.712 44.293C772.465 41.4289 776.663 39.9971 781.305 39.9971Z" fill="black"/>
<path d="M159.995 76.6133V89.0557L135.571 89.9209L136.122 89.0215C138.457 85.1983 140.151 80.9448 141.063 76.4062L141.158 75.9336L159.995 76.6133Z" fill="black"/>
<path d="M118.335 48.7236L154.849 36.4941L126 62.001L129.72 83.7744L112.724 69.667L88.5098 74.7783L105.058 56.3896L101.338 34.6162L118.335 48.7236Z" fill="black"/>
<path fill-rule="evenodd" clip-rule="evenodd" d="M87.3818 32.6143L87.0283 32.7686C81.714 35.0917 77.0158 38.559 73.2441 42.8623L72.1924 44.0605L73.7764 0H86.2188L87.3818 32.6143ZM85.7979 32.7041C85.702 32.7492 85.6062 32.7959 85.5107 32.8418C85.6287 32.7851 85.7476 32.7285 85.8662 32.6729L85.7979 32.7041Z" fill="black"/>
</svg>
